<mxfile host="app.diagrams.net" agent="Mozilla/5.0 (Macintosh; Intel Mac OS X 10.15; rv:131.0) Gecko/20100101 Firefox/131.0" version="24.8.0">
  <diagram name="Page-1" id="UZVi_8cWLqrK9Wn85Bvv">
    <mxGraphModel dx="2057" dy="807" grid="1" gridSize="10" guides="1" tooltips="1" connect="1" arrows="1" fold="1" page="1" pageScale="1" pageWidth="850" pageHeight="1100" math="0" shadow="0">
      <root>
        <mxCell id="0" />
        <mxCell id="1" parent="0" />
        <mxCell id="PrW-mGgzs3KouXYmzcUu-2" value="About (i.e. Home)" style="rounded=1;whiteSpace=wrap;html=1;" vertex="1" parent="1">
          <mxGeometry x="-70" y="200" width="100" height="40" as="geometry" />
        </mxCell>
        <mxCell id="PrW-mGgzs3KouXYmzcUu-4" value="Research" style="rounded=1;whiteSpace=wrap;html=1;" vertex="1" parent="1">
          <mxGeometry x="-570" y="310" width="100" height="40" as="geometry" />
        </mxCell>
        <mxCell id="PrW-mGgzs3KouXYmzcUu-5" value="Personas" style="rounded=1;whiteSpace=wrap;html=1;" vertex="1" parent="1">
          <mxGeometry x="-460" y="310" width="100" height="40" as="geometry" />
        </mxCell>
        <mxCell id="PrW-mGgzs3KouXYmzcUu-6" value="Scenarios" style="rounded=1;whiteSpace=wrap;html=1;" vertex="1" parent="1">
          <mxGeometry x="-350" y="310" width="100" height="40" as="geometry" />
        </mxCell>
        <mxCell id="PrW-mGgzs3KouXYmzcUu-7" value="Storyboard" style="rounded=1;whiteSpace=wrap;html=1;" vertex="1" parent="1">
          <mxGeometry x="-240" y="310" width="100" height="40" as="geometry" />
        </mxCell>
        <mxCell id="PrW-mGgzs3KouXYmzcUu-8" value="Moodboard" style="rounded=1;whiteSpace=wrap;html=1;" vertex="1" parent="1">
          <mxGeometry x="-130" y="310" width="100" height="40" as="geometry" />
        </mxCell>
        <mxCell id="PrW-mGgzs3KouXYmzcUu-9" value="Flowchart" style="rounded=1;whiteSpace=wrap;html=1;" vertex="1" parent="1">
          <mxGeometry x="-20" y="310" width="100" height="40" as="geometry" />
        </mxCell>
        <mxCell id="PrW-mGgzs3KouXYmzcUu-10" value="Wireframes" style="rounded=1;whiteSpace=wrap;html=1;" vertex="1" parent="1">
          <mxGeometry x="90" y="310" width="100" height="40" as="geometry" />
        </mxCell>
        <mxCell id="PrW-mGgzs3KouXYmzcUu-11" value="GUI" style="rounded=1;whiteSpace=wrap;html=1;" vertex="1" parent="1">
          <mxGeometry x="200" y="310" width="100" height="40" as="geometry" />
        </mxCell>
        <mxCell id="PrW-mGgzs3KouXYmzcUu-12" value="Prototype" style="rounded=1;whiteSpace=wrap;html=1;" vertex="1" parent="1">
          <mxGeometry x="310" y="310" width="100" height="40" as="geometry" />
        </mxCell>
        <mxCell id="PrW-mGgzs3KouXYmzcUu-13" value="References" style="rounded=1;whiteSpace=wrap;html=1;" vertex="1" parent="1">
          <mxGeometry x="420" y="310" width="100" height="40" as="geometry" />
        </mxCell>
        <mxCell id="PrW-mGgzs3KouXYmzcUu-21" value="" style="endArrow=none;html=1;rounded=0;entryX=0.5;entryY=0;entryDx=0;entryDy=0;endFill=0;" edge="1" parent="1" target="PrW-mGgzs3KouXYmzcUu-4">
          <mxGeometry width="50" height="50" relative="1" as="geometry">
            <mxPoint x="-20" y="280" as="sourcePoint" />
            <mxPoint x="60" y="510" as="targetPoint" />
            <Array as="points">
              <mxPoint x="-520" y="280" />
            </Array>
          </mxGeometry>
        </mxCell>
        <mxCell id="PrW-mGgzs3KouXYmzcUu-22" value="" style="endArrow=none;html=1;rounded=0;entryX=0.5;entryY=1;entryDx=0;entryDy=0;" edge="1" parent="1" target="PrW-mGgzs3KouXYmzcUu-2">
          <mxGeometry width="50" height="50" relative="1" as="geometry">
            <mxPoint x="-20" y="280" as="sourcePoint" />
            <mxPoint x="110" y="460" as="targetPoint" />
          </mxGeometry>
        </mxCell>
        <mxCell id="PrW-mGgzs3KouXYmzcUu-23" value="" style="endArrow=none;html=1;rounded=0;entryX=0.5;entryY=0;entryDx=0;entryDy=0;endFill=0;" edge="1" parent="1" target="PrW-mGgzs3KouXYmzcUu-13">
          <mxGeometry width="50" height="50" relative="1" as="geometry">
            <mxPoint x="-20" y="280" as="sourcePoint" />
            <mxPoint x="-510" y="320" as="targetPoint" />
            <Array as="points">
              <mxPoint x="470" y="280" />
            </Array>
          </mxGeometry>
        </mxCell>
        <mxCell id="PrW-mGgzs3KouXYmzcUu-24" value="" style="endArrow=none;html=1;rounded=0;entryX=0.5;entryY=0;entryDx=0;entryDy=0;endFill=0;" edge="1" parent="1" target="PrW-mGgzs3KouXYmzcUu-5">
          <mxGeometry width="50" height="50" relative="1" as="geometry">
            <mxPoint x="-410" y="280" as="sourcePoint" />
            <mxPoint x="-120" y="360" as="targetPoint" />
          </mxGeometry>
        </mxCell>
        <mxCell id="PrW-mGgzs3KouXYmzcUu-25" value="" style="endArrow=none;html=1;rounded=0;entryX=0.5;entryY=0;entryDx=0;entryDy=0;endFill=0;" edge="1" parent="1" target="PrW-mGgzs3KouXYmzcUu-6">
          <mxGeometry width="50" height="50" relative="1" as="geometry">
            <mxPoint x="-300" y="280" as="sourcePoint" />
            <mxPoint x="-400" y="320" as="targetPoint" />
          </mxGeometry>
        </mxCell>
        <mxCell id="PrW-mGgzs3KouXYmzcUu-26" value="" style="endArrow=none;html=1;rounded=0;entryX=0.5;entryY=0;entryDx=0;entryDy=0;endFill=0;" edge="1" parent="1" target="PrW-mGgzs3KouXYmzcUu-7">
          <mxGeometry width="50" height="50" relative="1" as="geometry">
            <mxPoint x="-190" y="280" as="sourcePoint" />
            <mxPoint x="-390" y="330" as="targetPoint" />
          </mxGeometry>
        </mxCell>
        <mxCell id="PrW-mGgzs3KouXYmzcUu-27" value="" style="endArrow=none;html=1;rounded=0;entryX=0.5;entryY=0;entryDx=0;entryDy=0;endFill=0;" edge="1" parent="1" target="PrW-mGgzs3KouXYmzcUu-8">
          <mxGeometry width="50" height="50" relative="1" as="geometry">
            <mxPoint x="-80" y="280" as="sourcePoint" />
            <mxPoint x="-180" y="320" as="targetPoint" />
          </mxGeometry>
        </mxCell>
        <mxCell id="PrW-mGgzs3KouXYmzcUu-28" value="" style="endArrow=none;html=1;rounded=0;entryX=0.5;entryY=0;entryDx=0;entryDy=0;endFill=0;" edge="1" parent="1" target="PrW-mGgzs3KouXYmzcUu-9">
          <mxGeometry width="50" height="50" relative="1" as="geometry">
            <mxPoint x="30" y="280" as="sourcePoint" />
            <mxPoint x="-170" y="330" as="targetPoint" />
          </mxGeometry>
        </mxCell>
        <mxCell id="PrW-mGgzs3KouXYmzcUu-29" value="" style="endArrow=none;html=1;rounded=0;entryX=0.5;entryY=0;entryDx=0;entryDy=0;endFill=0;" edge="1" parent="1" target="PrW-mGgzs3KouXYmzcUu-10">
          <mxGeometry width="50" height="50" relative="1" as="geometry">
            <mxPoint x="140" y="280" as="sourcePoint" />
            <mxPoint x="-160" y="340" as="targetPoint" />
          </mxGeometry>
        </mxCell>
        <mxCell id="PrW-mGgzs3KouXYmzcUu-30" value="" style="endArrow=none;html=1;rounded=0;entryX=0.5;entryY=0;entryDx=0;entryDy=0;endFill=0;" edge="1" parent="1" target="PrW-mGgzs3KouXYmzcUu-11">
          <mxGeometry width="50" height="50" relative="1" as="geometry">
            <mxPoint x="250" y="280" as="sourcePoint" />
            <mxPoint x="150" y="320" as="targetPoint" />
          </mxGeometry>
        </mxCell>
        <mxCell id="PrW-mGgzs3KouXYmzcUu-31" value="" style="endArrow=none;html=1;rounded=0;entryX=0.5;entryY=0;entryDx=0;entryDy=0;endFill=0;" edge="1" parent="1" target="PrW-mGgzs3KouXYmzcUu-12">
          <mxGeometry width="50" height="50" relative="1" as="geometry">
            <mxPoint x="360" y="280" as="sourcePoint" />
            <mxPoint x="160" y="330" as="targetPoint" />
          </mxGeometry>
        </mxCell>
        <mxCell id="PrW-mGgzs3KouXYmzcUu-32" value="" style="edgeStyle=orthogonalEdgeStyle;sourcePerimeterSpacing=0;targetPerimeterSpacing=0;startArrow=none;endArrow=none;rounded=0;targetPortConstraint=eastwest;sourcePortConstraint=northsouth;curved=0;rounded=0;" edge="1" target="PrW-mGgzs3KouXYmzcUu-34" parent="1">
          <mxGeometry relative="1" as="geometry">
            <mxPoint x="-410" y="350" as="sourcePoint" />
          </mxGeometry>
        </mxCell>
        <mxCell id="PrW-mGgzs3KouXYmzcUu-33" value="" style="edgeStyle=orthogonalEdgeStyle;sourcePerimeterSpacing=0;targetPerimeterSpacing=0;startArrow=none;endArrow=none;rounded=0;targetPortConstraint=eastwest;sourcePortConstraint=northsouth;curved=0;rounded=0;" edge="1" target="PrW-mGgzs3KouXYmzcUu-35" parent="1">
          <mxGeometry relative="1" as="geometry">
            <mxPoint x="-410" y="350" as="sourcePoint" />
          </mxGeometry>
        </mxCell>
        <mxCell id="PrW-mGgzs3KouXYmzcUu-34" value="Persona 1" style="whiteSpace=wrap;html=1;align=center;verticalAlign=middle;treeFolding=1;treeMoving=1;rounded=1;" vertex="1" parent="1">
          <mxGeometry x="-525" y="370" width="100" height="40" as="geometry" />
        </mxCell>
        <mxCell id="PrW-mGgzs3KouXYmzcUu-35" value="Persona 2" style="whiteSpace=wrap;html=1;align=center;verticalAlign=middle;treeFolding=1;treeMoving=1;rounded=1;" vertex="1" parent="1">
          <mxGeometry x="-525" y="430" width="100" height="40" as="geometry" />
        </mxCell>
        <mxCell id="PrW-mGgzs3KouXYmzcUu-36" value="" style="edgeStyle=orthogonalEdgeStyle;sourcePerimeterSpacing=0;targetPerimeterSpacing=0;startArrow=none;endArrow=none;rounded=0;targetPortConstraint=eastwest;sourcePortConstraint=northsouth;curved=0;rounded=0;" edge="1" parent="1" target="PrW-mGgzs3KouXYmzcUu-38">
          <mxGeometry relative="1" as="geometry">
            <mxPoint x="-300" y="350" as="sourcePoint" />
          </mxGeometry>
        </mxCell>
        <mxCell id="PrW-mGgzs3KouXYmzcUu-37" value="" style="edgeStyle=orthogonalEdgeStyle;sourcePerimeterSpacing=0;targetPerimeterSpacing=0;startArrow=none;endArrow=none;rounded=0;targetPortConstraint=eastwest;sourcePortConstraint=northsouth;curved=0;rounded=0;" edge="1" parent="1" target="PrW-mGgzs3KouXYmzcUu-39">
          <mxGeometry relative="1" as="geometry">
            <mxPoint x="-300" y="350" as="sourcePoint" />
          </mxGeometry>
        </mxCell>
        <mxCell id="PrW-mGgzs3KouXYmzcUu-38" value="Scenario 2" style="whiteSpace=wrap;html=1;align=center;verticalAlign=middle;treeFolding=1;treeMoving=1;rounded=1;" vertex="1" parent="1">
          <mxGeometry x="-280" y="430" width="100" height="40" as="geometry" />
        </mxCell>
        <mxCell id="PrW-mGgzs3KouXYmzcUu-39" value="Scenario 1" style="whiteSpace=wrap;html=1;align=center;verticalAlign=middle;treeFolding=1;treeMoving=1;rounded=1;" vertex="1" parent="1">
          <mxGeometry x="-280" y="370" width="100" height="40" as="geometry" />
        </mxCell>
      </root>
    </mxGraphModel>
  </diagram>
</mxfile>
